<?xml version="1.0" encoding="utf-8"?>
<!-- Generated by Mocodo 4.3.2 -->
<svg width="458" height="187" viewBox="0 0 458 187" xmlns="http://www.w3.org/2000/svg">
<rect x="0" y="0" width="458" height="187" fill="#f7f7f7" stroke="none" stroke-width="0"/>

<!-- Association FAIT -->
<g>
	<line x1="56" y1="136" x2="56" y2="43" stroke="#5aae61" stroke-width="2"/>
	<line x1="172" y1="43" x2="56" y2="43" stroke="#5aae61" stroke-width="2"/>
	<g>
		<path d="M64 18 a14 14 90 0 1 14 14 V43 h-44 V32 a14 14 90 0 1 14 -14" fill="#a6dba0" stroke="#a6dba0" stroke-width="0"/>
		<path d="M78 43 v11 a14 14 90 0 1 -14 14 H48 a14 14 90 0 1 -14 -14 V43 H44" fill="#d9f0d3" stroke="#d9f0d3" stroke-width="0"/>
		<rect x="34" y="18" width="44" height="50" fill="none" rx="14" stroke="#5aae61" stroke-width="2"/>
		<line x1="34" y1="43" x2="78" y2="43" stroke="#5aae61" stroke-width="1"/>
		<text x="42" y="35.75" fill="#000000" font-family="Verdana" font-size="12">FAIT</text>
	</g>
	<text x="61" y="86" fill="#762a83" font-family="Verdana" font-size="12">0,N</text>
	<text x="91" y="60" fill="#762a83" font-family="Verdana" font-size="12">1,1</text>
</g>

<!-- Association POSSEDE -->
<g>
	<line x1="407" y1="43" x2="296" y2="43" stroke="#5aae61" stroke-width="2"/>
	<line x1="172" y1="43" x2="296" y2="43" stroke="#5aae61" stroke-width="2"/>
	<g>
		<path d="M319 18 a14 14 90 0 1 14 14 V43 h-74 V32 a14 14 90 0 1 14 -14" fill="#a6dba0" stroke="#a6dba0" stroke-width="0"/>
		<path d="M333 43 v11 a14 14 90 0 1 -14 14 H273 a14 14 90 0 1 -14 -14 V43 H74" fill="#d9f0d3" stroke="#d9f0d3" stroke-width="0"/>
		<rect x="259" y="18" width="74" height="50" fill="none" rx="14" stroke="#5aae61" stroke-width="2"/>
		<line x1="259" y1="43" x2="333" y2="43" stroke="#5aae61" stroke-width="1"/>
		<text x="267" y="35.75" fill="#000000" font-family="Verdana" font-size="12">POSSEDE</text>
	</g>
	<text x="339" y="60" fill="#762a83" font-family="Verdana" font-size="12">1,1</text>
	<text x="232" y="60" fill="#762a83" font-family="Verdana" font-size="12">1,N</text>
</g>

<!-- Association POSSEDE2 -->
<g>
	<line x1="296" y1="136" x2="172" y2="136" stroke="#5aae61" stroke-width="2"/>
	<line x1="172" y1="43" x2="172" y2="136" stroke="#5aae61" stroke-width="2"/>
	<g>
		<path d="M195 111 a14 14 90 0 1 14 14 V136 h-74 V125 a14 14 90 0 1 14 -14" fill="#a6dba0" stroke="#a6dba0" stroke-width="0"/>
		<path d="M209 136 v11 a14 14 90 0 1 -14 14 H149 a14 14 90 0 1 -14 -14 V136 H74" fill="#d9f0d3" stroke="#d9f0d3" stroke-width="0"/>
		<rect x="135" y="111" width="74" height="50" fill="none" rx="14" stroke="#5aae61" stroke-width="2"/>
		<line x1="135" y1="136" x2="209" y2="136" stroke="#5aae61" stroke-width="1"/>
		<text x="143" y="128.75" fill="#000000" font-family="Verdana" font-size="12">POSSEDE</text>
	</g>
	<text x="230" y="153" fill="#762a83" font-family="Verdana" font-size="12">1,1</text>
	<text x="177" y="85" fill="#762a83" font-family="Verdana" font-size="12">1,N</text>
</g>

<!-- Entity CONVERSATION -->
<g>
	<g>
		<rect x="117" y="18" width="110" height="25" fill="#c2a5cf" stroke="none" stroke-width="0" opacity="1"/>
		<rect x="117" y="43" width="110" height="25" fill="#e7d4e8" stroke="none" stroke-width="0" opacity="1"/>
		<rect x="117" y="18" width="110" height="50" fill="none" stroke="#9970ab" stroke-width="2" opacity="1"/>
		<line x1="117" y1="43" x2="227" y2="43" stroke="#9970ab" stroke-width="1"/>
	</g>
	<text x="123" y="35.75" fill="#000000" font-family="Verdana" font-size="12">CONVERSATION</text>
	<text x="122" y="60.8" fill="#000000" font-family="Verdana" font-size="12">rèf.conversation</text>
	<line x1="122" y1="63" x2="221" y2="63" stroke="#000000" stroke-width="1"/>
</g>

<!-- Entity QUESTION -->
<g>
	<g>
		<rect x="365" y="9" width="84" height="25" fill="#c2a5cf" stroke="none" stroke-width="0" opacity="1"/>
		<rect x="365" y="34" width="84" height="43" fill="#e7d4e8" stroke="none" stroke-width="0" opacity="1"/>
		<rect x="365" y="9" width="84" height="68" fill="none" stroke="#9970ab" stroke-width="2" opacity="1"/>
		<line x1="365" y1="34" x2="449" y2="34" stroke="#9970ab" stroke-width="1"/>
	</g>
	<text x="374" y="26.75" fill="#000000" font-family="Verdana" font-size="12">QUESTION</text>
	<text x="370" y="51.8" fill="#000000" font-family="Verdana" font-size="12">rèf.question</text>
	<line x1="370" y1="54" x2="443" y2="54" stroke="#000000" stroke-width="1"/>
	<text x="370" y="68.8" fill="#000000" font-family="Verdana" font-size="12">texte</text>
</g>

<!-- Entity UTILISATEUR -->
<g>
	<g>
		<rect x="9" y="94" width="94" height="25" fill="#c2a5cf" stroke="none" stroke-width="0" opacity="1"/>
		<rect x="9" y="119" width="94" height="59" fill="#e7d4e8" stroke="none" stroke-width="0" opacity="1"/>
		<rect x="9" y="94" width="94" height="84" fill="none" stroke="#9970ab" stroke-width="2" opacity="1"/>
		<line x1="9" y1="119" x2="103" y2="119" stroke="#9970ab" stroke-width="1"/>
	</g>
	<text x="15" y="111.75" fill="#000000" font-family="Verdana" font-size="12">UTILISATEUR</text>
	<text x="14" y="136.8" fill="#000000" font-family="Verdana" font-size="12">rèf.utilisateur</text>
	<line x1="14" y1="139" x2="96" y2="139" stroke="#000000" stroke-width="1"/>
	<text x="14" y="153.8" fill="#000000" font-family="Verdana" font-size="12">mail</text>
	<text x="14" y="170.8" fill="#000000" font-family="Verdana" font-size="12">mot de passe</text>
</g>

<!-- Entity REPONSE -->
<g>
	<g>
		<rect x="256" y="102" width="80" height="25" fill="#c2a5cf" stroke="none" stroke-width="0" opacity="1"/>
		<rect x="256" y="127" width="80" height="43" fill="#e7d4e8" stroke="none" stroke-width="0" opacity="1"/>
		<rect x="256" y="102" width="80" height="68" fill="none" stroke="#9970ab" stroke-width="2" opacity="1"/>
		<line x1="256" y1="127" x2="336" y2="127" stroke="#9970ab" stroke-width="1"/>
	</g>
	<text x="267" y="119.75" fill="#000000" font-family="Verdana" font-size="12">REPONSE</text>
	<text x="261" y="144.8" fill="#000000" font-family="Verdana" font-size="12">rèf.réponse</text>
	<line x1="261" y1="147" x2="331" y2="147" stroke="#000000" stroke-width="1"/>
	<text x="261" y="161.8" fill="#000000" font-family="Verdana" font-size="12">texte</text>
</g>
</svg>